<?xml version="1.0" encoding="UTF-8" standalone="no"?>
<!-- Created with Inkscape (http://www.inkscape.org/) -->

<svg
   xmlns:dc="http://purl.org/dc/elements/1.1/"
   xmlns:cc="http://creativecommons.org/ns#"
   xmlns:rdf="http://www.w3.org/1999/02/22-rdf-syntax-ns#"
   xmlns:svg="http://www.w3.org/2000/svg"
   xmlns="http://www.w3.org/2000/svg"
   version="1.1"
   width="400"
   height="527"
   id="svg392">
  <defs
     id="defs394" />
  <metadata
     id="metadata397">
    <rdf:RDF>
      <cc:Work
         rdf:about="">
        <dc:format>image/svg+xml</dc:format>
        <dc:type
           rdf:resource="http://purl.org/dc/dcmitype/StillImage" />
        <dc:title></dc:title>
      </cc:Work>
    </rdf:RDF>
  </metadata>
  <g
     transform="matrix(1.0405735,0,0,1.0402904,-210.28327,-299.22804)"
     id="layer1">
    <g
       transform="translate(202.08401,287.63895)"
       id="g311">
      <path
         d="m 171.98091,500.34944 c -17.3682,-4.4938 -28.7751,-14.17451 -45.0435,-38.2269 -11.5584,-17.08884 -14.1202,-20.04945 -19.7183,-22.78835 -6.1967,-3.03176 -9.470298,-2.76749 -26.424098,2.13302 -21.6364,6.25397 -30.8175,6.46861 -41.9642,0.98112 -13.6093,-6.69984 -27.8424,-26.92178 -31.8397994,-45.23706 -6.97449993,-31.95615 -2.2496,-87.74947 12.6710994,-149.62664 11.1056,-46.05519 22.6669,-77.23945 45.7337,-123.35684 C 99.394412,56.254322 134.90981,20.351842 179.62271,8.7558305 c 24.0662,-6.24143 45.1948,-5.38157 61.4068,2.4991215 24.9781,12.14188 35.0986,34.12382 42.138,91.525018 4.8988,39.94612 8.2157,57.15827 14.4233,74.84517 7.4219,21.14653 12.0922,30.71301 45.0865,92.35283 36.346,67.90168 44.9381,97.48818 34.5121,118.84146 -3.3714,6.90499 -17.7111,21.63415 -26.9368,27.66846 -13.0678,8.54735 -21.7116,11.13686 -44.3405,13.28371 -26.5692,2.52067 -29.8917,4.51845 -50.7353,30.50578 -13.945,17.38635 -17.7917,21.48654 -25.867,27.57144 -12.9718,9.77459 -22.9856,13.22999 -39.8212,13.74081 -8.9968,0.273 -12.6632,0.012 -17.5077,-1.24019 l 0,0 z"
         id="sfondo"
         style="color:#000000;fill:#cbe0f5;fill-opacity:1;stroke:none;stroke-width:3;marker:none;visibility:visible;display:inline;overflow:visible;enable-background:accumulate" />
      <g
         transform="translate(-83.798292,-36.79982)"
         id="g435">
        <path
           d="M 293.4513,36.854412 C 210.57191,38.843352 166.13501,109.80956 126.53064,201.41683 94.775712,274.86787 70.368192,409.27363 92.041062,451.3925 c 30.661478,59.58719 66.445708,25.94087 90.719358,25.94087 24.27365,0 30.69925,64.73593 85.63435,66.0313 54.93514,1.2954 68.95133,-49.19146 93.22502,-66.0313 24.27363,-16.8399 56.22414,7.70244 98.3837,-42.81718 C 496.13382,391.22125 402.44546,279.4942 380.41218,205.47008 359.04091,133.67031 379.80129,47.315812 301.55782,36.854412 c -2.75473,-0.0809 -5.43299,-0.0642 -8.10652,0 z m -0.88435,13.33891 c 2.53294,-0.0608 5.05448,-0.0766 7.66435,0 74.1288,9.91123 54.47999,91.674538 74.7274,159.698498 20.87457,70.13133 109.62096,176.01554 75.39065,217.03372 -39.94248,47.86286 -70.22787,24.57829 -93.225,40.5326 -22.99717,15.95425 -36.31486,63.79491 -88.3611,62.56762 -52.04617,-1.22723 -58.06807,-62.56762 -81.06523,-62.56762 -22.99714,0 -56.88012,31.91301 -85.92913,-24.54065 -20.533118,-39.9039 2.56221,-167.26943 32.64717,-236.85784 37.52168,-86.78979 79.62995,-153.981958 158.15089,-155.866328 z"
           id="bordo"
           style="fill:#01519c;fill-opacity:1;fill-rule:evenodd;stroke:none" />
        <path
           d="m 127.1879,248.15902 c 19.05762,-29.86222 59.3114,-48.49655 105.63437,-45.12759 -42.954,15.58136 -62.03038,74.04692 -44.56628,98.34965 12.93853,18.00502 35.04902,23.35561 51.45467,26.28973 36.21055,6.47621 66.95004,-13.92041 106.61509,-11.77377 39.66505,2.14663 84.22919,24.98534 97.33131,47.61627 l 5.62322,16.9369 c -10.5754,-21.15703 -39.12131,-54.88974 -102.16175,-58.98026 -40.57336,-2.6327 -83.75345,24.09889 -117.47331,23.18008 -83.64922,-2.35897 -100.8839,-62.02927 -58.91291,-109.44921 0,0 -21.79901,3.60618 -59.50552,56.94156 6.31677,-41.69068 32.63654,-63.11543 15.96111,-43.98336 z"
           id="onda_sopra"
           style="fill:#01519c;fill-opacity:1;stroke:none" />
      </g>
      <g
         transform="translate(-83.798292,-36.79982)"
         id="g431">
        <path
           d="m 283.59714,55.111252 c 25.75662,-0.14999 50.02164,10.90391 58.1143,27.79377 8.8324,18.433708 13.50602,18.170828 17.92022,68.268198 2.66323,30.22536 3.60476,40.56237 9.87356,59.75171 11.42754,34.98065 33.77367,69.90561 49.77615,98.54163 -12.63355,-8.42235 -38.74415,-27.10735 -81.27577,-30.32051 -55.30485,-4.17813 -97.74576,3.408 -111.17518,-16.0025 C 213.99049,244.5851 244.43937,182.61374 316.44436,215.9783 238.81682,140.75449 180.91786,177.75998 146.45716,189.86901 196.49795,84.746422 238.89836,61.244942 283.59714,55.111252 z"
           id="sfondo_slimp"
           style="fill:#0169c9;fill-opacity:1;stroke:none" />
        <path
           d="m 112.49298,436.56187 c 17.08495,13.79764 67.32807,17.68676 91.48906,11.24341 10.09162,-2.69127 81.64895,-16.65311 102.07836,-17.3337 16.01535,-2.52277 61.3529,2.41599 123.11846,13.10704 -52.64867,-18.71074 -105.84573,-18.15383 -124.61913,-17.5853 -51.89162,1.57149 -83.47568,11.6666 -100.45777,13.79757 -41.94882,5.20077 -101.14241,1.15791 -105.502778,-42.00087 -2.16424,23.89762 8.555148,34.46041 13.893798,38.77185 z"
           id="onda_sotto"
           style="fill:#0169c9;fill-opacity:1;stroke:none" />
      </g>
      <g
         transform="translate(-83.798292,-36.79982)"
         id="g404">
        <path
           d="m 98.018172,361.1996 c 10.557788,-17.69476 6.555518,-18.54225 23.503118,-32.82237 -14.25853,30.17487 -7.4165,71.06386 44.5641,69.10867 50.33972,-1.89347 65.5415,-35.08278 145.96471,-45.8337 45.70812,-6.11023 119.88549,28.59797 140.94138,50.49613 -32.85861,-41.25599 -108.76141,-60.10347 -145.2915,-54.74216 -65.75827,5.51887 -64.06501,32.10174 -136.97671,33.35087 -31.23913,0.53518 -53.36048,-20.88559 -36.57527,-70.01078 -23.01811,10.76828 -31.65284,16.71205 -36.129828,50.45334 z"
           id="onda_centro"
           style="fill:#01386b;fill-opacity:1;stroke:none" />
        <g
           id="g379">
          <g
             transform="translate(-18.985978,19.639772)"
             id="g4758">
            <path
               d="m 154.08524,390.47894 c 6.37741,-1.98207 15.381,0.93474 20.15719,4.52284 1.68862,0.75864 1.08365,2.35795 1.23177,3.75673 -0.14144,0.97368 0.29104,2.85606 -1.5399,2.50762 -1.45541,0.27136 -2.14648,-1.2623 -3.42435,-1.6584 -1.72697,-1.23154 -10.67657,-6.20156 -9.64709,-2.44088 2.62968,3.1104 4.75215,9.37156 0.42956,11.4469 -3.25446,1.79377 -7.30319,1.61154 -10.89314,0.92664 -1.7152,-0.39998 -4.91272,-1.59465 -5.00844,-2.89556 -0.14073,-0.87711 0.37912,-1.22633 0.54538,-1.87261 0.68758,-0.69564 0.81981,-2.12568 2.13288,-2.07739 7.26861,2.81522 15.09651,2.91899 8.76444,-3.17754 -3.13653,-2.24136 -7.8882,-7.44089 -2.7483,-9.03835 z"
               id="path3903-8"
               style="font-size:33.08108139px;font-style:normal;font-variant:normal;font-weight:normal;font-stretch:normal;text-align:center;line-height:125%;letter-spacing:0px;word-spacing:0px;text-anchor:middle;fill:#01386b;fill-opacity:1;stroke:none;font-family:Permanent Marker;-inkscape-font-specification:Permanent Marker" />
            <path
               d="m 186.39901,409.9504 c -0.23737,1.42072 0.88154,2.84775 0.18124,4.2334 -0.67112,1.98744 -2.97328,2.96453 -5.01669,3.43917 -5.52411,0.8108 -15.9789,2.34968 -15.6417,-6.83463 1.15434,-3.36349 4.19302,-5.79375 7.27772,-7.72324 2.527,-1.23261 4.76319,-3.14578 7.24204,-3.93736 1.17429,-0.97922 2.66284,-0.10414 3.11059,1.0463 0.77764,0.77103 1.80476,1.9469 0.87891,2.92949 -0.87528,1.29689 1.10583,4.56732 1.96789,6.84687 z m -6.46859,-3.94847 c -3.14971,-2.0887 -12.33722,7.34556 -7.68815,7.62188 9.4453,1.08996 12.85963,-5.06541 7.68815,-7.62188 z"
               id="path3905-1"
               style="font-size:33.08108139px;font-style:normal;font-variant:normal;font-weight:normal;font-stretch:normal;text-align:center;line-height:125%;letter-spacing:0px;word-spacing:0px;text-anchor:middle;fill:#01386b;fill-opacity:1;stroke:none;font-family:Permanent Marker;-inkscape-font-specification:Permanent Marker" />
            <path
               d="m 192.05752,417.8772 c 0.0227,1.33796 -1.71719,2.07079 -2.85836,1.2671 -1.06343,-0.64832 -1.85014,-1.89537 -1.66326,-3.08096 0.42548,-1.14272 0.70143,-2.47519 -0.69775,-3.12844 -0.96372,-0.97888 -1.11855,-2.67835 0.1424,-3.5143 0.78032,-0.91581 1.90739,-0.22482 2.81215,-0.34871 0.44852,-0.71904 1.38085,-2.38346 0.0855,-2.76553 -0.99606,-0.25503 -1.45062,-1.29217 -1.93329,-1.98588 -0.29808,-1.02324 0.40168,-1.95002 1.67721,-2.31365 4.23475,-1.20726 8.1385,-2.81891 12.18347,-3.51756 1.24356,-0.11773 2.70295,-0.36971 3.69002,0.51779 0.82636,0.68636 2.62133,1.5663 1.81782,2.77433 -0.82321,0.92565 -2.20122,0.47806 -3.31032,0.69142 -2.68865,0.41328 -5.47821,0.76409 -7.90101,1.97947 -0.48857,1.25423 -0.89721,2.5478 -1.15079,3.85597 1.95766,0.91219 5.0893,-1.11459 7.00332,-0.27325 2.57741,1.13295 0.58557,4.03276 -1.81414,4.15982 -1.82361,0.4829 -3.67478,0.87876 -5.53605,1.20912 -1.08145,0.19195 -1.94715,0.65975 -2.15607,1.71262 -0.19506,0.98303 -0.60348,1.79276 -0.39076,2.76102"
               id="path3907-3"
               style="font-size:33.08108139px;font-style:normal;font-variant:normal;font-weight:normal;font-stretch:normal;text-align:center;line-height:125%;letter-spacing:0px;word-spacing:0px;text-anchor:middle;fill:#01386b;fill-opacity:1;stroke:none;font-family:Permanent Marker;-inkscape-font-specification:Permanent Marker" />
            <path
               d="m 221.73059,400.81836 c -2.15612,0.25829 -4.22033,0.92088 -6.35719,1.26908 -0.53907,3.85658 -3.10483,7.35146 -3.49002,10.95085 -0.2628,1.03317 -0.383,2.36868 1.03979,2.66875 1.09643,0.70094 0.21011,2.33707 -0.97609,2.47247 -2.4347,0.28387 -3.60954,-1.53929 -4.34797,-3.46632 -0.67798,-2.33079 0.34719,-4.68065 0.9283,-6.93638 0.17359,-1.03847 0.65032,-1.94908 0.98461,-2.93639 0.27047,-0.56624 0.7768,-1.86145 -0.4597,-1.26015 -1.53184,0.28737 -3.07277,0.53569 -4.615,0.74317 -1.30459,0.0746 -2.07285,-1.03137 -2.52549,-1.98803 -0.57774,-0.86692 -0.60301,-2.86974 1.01272,-2.50897 2.64827,-0.26006 5.23688,-0.85179 7.84336,-1.33077 0.13,-1.37528 1.7525,-0.41112 2.57293,-0.54114 2.98075,-0.56119 5.89948,-1.63952 8.98981,-1.52124 0.87224,0.57053 1.82485,1.13556 2.43347,1.95349 0.41489,0.89646 -0.20007,2.04015 -1.2976,2.02496 -0.54848,0.29473 -1.10049,0.44049 -1.73618,0.40721"
               id="path3909-6"
               style="font-size:33.08108139px;font-style:normal;font-variant:normal;font-weight:normal;font-stretch:normal;text-align:center;line-height:125%;letter-spacing:0px;word-spacing:0px;text-anchor:middle;fill:#01386b;fill-opacity:1;stroke:none;font-family:Permanent Marker;-inkscape-font-specification:Permanent Marker" />
            <path
               d="m 240.77799,415.05433 c -2.35362,-0.65719 -3.38598,-2.88884 -4.80736,-4.51669 -0.59235,-1.51345 -1.36571,0.32335 -2.05355,0.86785 -1.84416,2.0884 -4.00715,4.20012 -6.96319,4.87043 -1.58543,0.0416 -3.2549,-0.66152 -4.24922,-1.80914 -0.88135,-1.24678 -2.1504,-2.61069 -1.63824,-4.21289 0.29558,-4.08184 0.45502,-8.33395 2.42707,-12.08838 0.48115,-1.26756 2.23685,-1.5427 2.88426,-0.24049 1.43131,0.5259 2.10226,1.67061 1.472,2.99343 -0.61328,3.2758 -1.71629,6.5391 -1.49259,9.89329 1.03785,0.27702 1.87734,-1.39359 2.67638,-2.04171 2.334,-2.84213 3.32575,-6.34808 5.14221,-9.45155 0.64622,-0.96782 1.26592,-3.05005 2.64202,-1.63377 1.36963,0.66722 2.85969,1.86979 2.4563,3.44889 -0.24146,1.65648 -0.37421,3.32974 -0.43509,5.00047 0.0341,0.76271 0.23201,2.50216 1.00739,2.42528 1.31631,-1.05511 2.34991,-2.38824 2.81586,-3.94133 1.31151,-3.41411 1.77263,-7.06555 3.34709,-10.40092 1.19717,-0.60042 2.36397,0.9751 3.16235,1.66449 1.06548,1.13049 1.3255,2.70455 0.51865,4.01859 -1.57179,4.40707 -2.29522,9.25155 -5.44448,13.03124 -0.78416,1.37889 -2.10706,1.62803 -3.46786,2.12289"
               id="path3911-4"
               style="font-size:33.08108139px;font-style:normal;font-variant:normal;font-weight:normal;font-stretch:normal;text-align:center;line-height:125%;letter-spacing:0px;word-spacing:0px;text-anchor:middle;fill:#01386b;fill-opacity:1;stroke:none;font-family:Permanent Marker;-inkscape-font-specification:Permanent Marker" />
            <path
               d="m 267.7135,406.48374 c -0.20442,1.71981 -1.34196,3.67509 -3.26097,3.99133 -0.9505,0.15664 -1.79159,-0.27432 -2.09162,-1.23515 -0.20949,-0.67087 2.2311,-3.13332 -0.31517,-3.44462 -1.349,-0.0489 -2.32849,1.40998 -3.69318,1.48629 -1.2022,0.0672 -3.05666,0.77408 -3.78002,-0.1885 -0.28602,0.88654 -0.24553,0.62293 -0.40565,1.57731 -0.30058,0.95226 0.39913,2.08016 -0.1722,2.90253 -0.57991,0.83473 -1.47675,2.02531 -2.82108,1.48499 -7.40043,-5.05797 6.95269,-27.79106 9.58272,-20.31381 0.69412,1.38726 1.18106,2.85643 2.00281,4.19129 0.53201,1.0273 1.01864,2.08527 1.74168,3.01704 1.64913,-0.54213 4.46389,0.37544 3.92128,1.27963 -0.28048,0.91662 -1.18842,1.47202 -1.65002,2.27822 0.24347,1.27314 0.87121,1.83846 0.94142,2.97345 z m -11.3859,-3.20143 c 1.15198,-0.39865 2.82501,-0.67486 3.56828,-1.36515 -2.28412,-7.70449 -4.6219,1.85741 -3.56824,1.36515 z"
               id="path3913-0"
               style="font-size:33.08108139px;font-style:normal;font-variant:normal;font-weight:normal;font-stretch:normal;text-align:center;line-height:125%;letter-spacing:0px;word-spacing:0px;text-anchor:middle;fill:#01386b;fill-opacity:1;stroke:none;font-family:Permanent Marker;-inkscape-font-specification:Permanent Marker" />
            <path
               d="m 275.37531,403.86318 c -0.0661,1.20868 -0.13587,2.46586 -0.74379,3.56708 -2.526,1.40722 -4.54959,0.57709 -4.18702,-1.8458 -0.14438,-4.28342 -0.88329,-8.4417 -0.18489,-12.35362 1.60554,-3.91945 3.51065,-4.94928 6.01235,-6.48898 6.38461,-1.00939 11.03674,5.04675 8.54377,8.84214 -1.30393,2.24735 -4.03575,3.1863 -6.22714,4.53215 -0.64024,0.73531 1.20695,0.74032 1.69016,1.0482 1.65145,0.53952 3.41467,0.3433 5.12971,0.39532 0.95886,0.087 1.99398,-0.24871 2.88522,-0.098 1.01574,0.65878 1.33941,2.11246 1.3342,2.97032 -0.32326,0.94916 -1.2919,1.45271 -2.32654,1.58933 -2.29679,0.2975 -4.61102,-0.15304 -6.88654,-0.41558 -1.87585,-0.36501 -3.60109,-0.92269 -5.04094,-1.74198 m 2.24049,-11.8296 c -2.0058,0.86775 -2.28254,2.7421 -2.02749,4.5296 1.73397,-0.19771 4.03059,-1.37447 4.61621,-2.5827 -0.37124,-1.02226 -1.41148,-1.82364 -2.58872,-1.9469 z"
               id="path3915-3"
               style="font-size:33.08108139px;font-style:normal;font-variant:normal;font-weight:normal;font-stretch:normal;text-align:center;line-height:125%;letter-spacing:0px;word-spacing:0px;text-anchor:middle;fill:#01386b;fill-opacity:1;stroke:none;font-family:Permanent Marker;-inkscape-font-specification:Permanent Marker" />
            <path
               d="m 307.25878,384.21917 c 0.43736,1.19927 -0.47877,2.3849 -1.63426,2.8938 -1.93862,1.50708 -8.73173,1.57057 -9.14902,3.54274 0.066,1.16695 1.49585,0.47828 2.27898,0.47837 1.19815,-0.17919 2.38264,-0.43695 3.59117,-0.55591 3.28201,0.66894 3.49459,2.13655 0.9839,3.90335 -1.11122,0.81752 -2.494,1.37439 -3.93904,1.33651 -1.06506,0.15538 -2.15414,0.26777 -3.21805,0.20994 -0.81847,0.40266 -0.94368,1.38577 -1.32314,2.09378 -0.12844,0.4942 -0.78089,1.42289 0.26598,1.17717 3.59017,0.37024 6.46595,-1.85892 9.74014,-1.90438 1.07954,0.52049 1.84488,0.89628 2.23533,1.79293 0.0403,2.77118 -3.87403,3.37704 -5.74733,3.90669 -3.05031,0.41744 -6.70834,1.5148 -9.39669,0.57411 -1.82939,-1.22564 -3.01788,-4.59119 -2.14711,-6.17389 0.666,-1.91619 1.6112,-3.7759 2.13468,-5.60964 -1.38821,-0.88216 -1.34842,-2.57164 -1.94588,-3.87159 3.75394,-3.24685 9.49664,-4.17615 13.89764,-4.95985 1.71962,-0.004 2.63665,0.46016 3.37292,1.16598"
               id="path3917-5"
               style="font-size:33.08108139px;font-style:normal;font-variant:normal;font-weight:normal;font-stretch:normal;text-align:center;line-height:125%;letter-spacing:0px;word-spacing:0px;text-anchor:middle;fill:#01386b;fill-opacity:1;stroke:none;font-family:Permanent Marker;-inkscape-font-specification:Permanent Marker" />
            <path
               d="m 322.38834,396.68431 c 0.85777,-5.79471 3.82763,-11.20423 5.60753,-16.2816 0.25565,-1.07832 0.86064,-2.42499 2.27752,-1.92492 1.41687,0.50007 2.73776,0.33852 3.49933,1.45885 1.23648,0.93765 0.67019,2.38561 0.0659,3.47589 -1.36089,4.53284 -4.73774,8.70092 -4.95303,13.09722 1.40979,0.0778 2.75001,-0.33679 4.09502,-0.61705 1.86926,-0.22784 3.76132,-0.12294 5.63708,-0.26891 5.22858,0.34411 4.68308,1.57537 5.32081,3.67872 0.43737,1.49315 -0.8255,2.00998 -1.987,2.13737 -2.89617,-0.27896 -5.74576,-0.0908 -8.45916,0.15157 -2.64003,0.66798 -5.54544,1.74376 -8.23551,0.65956 -2.95171,-0.44568 -2.94224,-3.76802 -2.8685,-5.5667 z"
               id="path3919-8"
               style="font-size:33.08108139px;font-style:normal;font-variant:normal;font-weight:normal;font-stretch:normal;text-align:center;line-height:125%;letter-spacing:0px;word-spacing:0px;text-anchor:middle;fill:#01386b;fill-opacity:1;stroke:none;font-family:Permanent Marker;-inkscape-font-specification:Permanent Marker" />
            <path
               d="m 352.53289,400.67731 c 0.18285,0.92158 -0.23642,2.00882 -1.27499,2.3314 -0.85838,0.2245 -2.40377,0.51087 -2.75777,-0.46502 -0.65623,-1.54098 -1.01526,-3.17446 -1.30838,-4.80159 0.57552,-1.33378 0.3321,-2.82166 0.73866,-4.19496 1.57411,-3.35753 1.92845,-7.26273 3.85197,-9.5736 0.59753,-0.45966 1.5984,-1.44861 2.14248,-0.82643 1.52584,1.74489 2.02997,3.81905 1.40995,5.89795 -0.62003,2.0789 -2.63703,5.90179 -2.90055,9.07176 -0.053,0.85391 -0.017,1.71195 0.099,2.56049"
               id="path3921-5"
               style="font-size:33.08108139px;font-style:normal;font-variant:normal;font-weight:normal;font-stretch:normal;text-align:center;line-height:125%;letter-spacing:0px;word-spacing:0px;text-anchor:middle;fill:#01386b;fill-opacity:1;stroke:none;font-family:Permanent Marker;-inkscape-font-specification:Permanent Marker" />
            <path
               d="m 369.95596,403.79987 c -2.27594,0.44633 -4.28023,0.77585 -6.4696,0.65684 -0.79547,-0.36455 -1.6145,-1.45578 -2.31506,-0.40884 -1.21396,0.45539 -2.23501,-0.65865 -2.66876,-1.5658 -1.5831,-4.70385 4.33193,-9.11605 3.71878,-12.66689 -1.0599,0.0448 -1.33647,0.7286 -2.02795,0.63215 -1.3709,-0.43736 -2.14099,-1.70767 -2.74378,-2.83248 -0.5665,-1.24441 -1.17421,-1.49287 2.14005,-2.39861 3.31425,-0.90574 11.48494,-2.72308 15.95229,0.53308 0.86128,0.73797 1.39752,2.73524 1.30435,3.81764 -0.54029,1.98449 -2.66904,2.98399 -4.14878,4.3259 0.81508,1.21596 2.40584,1.85768 3.36052,4.49557 1.02244,3.79383 -3.69126,4.6661 -6.10206,5.41144 z m 1.49269,-15.45111 c -2.23996,-0.27052 -4.59221,-0.16188 -6.69018,0.65905 0.96794,0.4358 0.13859,2.78825 1.25146,2.51519 1.54137,-0.50241 4.27416,-2.13988 5.43872,-3.17424 z m 0.40503,8.18666 c -1.6034,-0.78773 -3.52441,-0.71473 -5.24808,-0.34475 -1.95321,0.86493 -2.45207,2.9434 -2.70405,4.05781 2.31453,-0.0863 10.41813,-2.49039 7.95213,-3.71306 z"
               id="path3923-0"
               style="font-size:33.08108139px;font-style:normal;font-variant:normal;font-weight:normal;font-stretch:normal;text-align:center;line-height:125%;letter-spacing:0px;word-spacing:0px;text-anchor:middle;fill:#01386b;fill-opacity:1;stroke:none;font-family:Permanent Marker;-inkscape-font-specification:Permanent Marker" />
            <path
               d="m 399.74129,389.88814 c 0.0996,1.65556 -1.8245,2.49961 -3.43595,2.57357 -2.5415,0.35967 -9.28082,-0.0185 -8.76757,1.80504 1.85406,0.41928 3.77972,0.34336 5.65918,0.60872 -0.49934,1.39225 3.13434,2.07352 1.32604,3.34582 -2.67014,2.71666 -8.45621,-0.45351 -9.70309,1.01278 -0.70637,0.85408 -2.69039,2.53601 -0.38811,2.50011 2.55408,1.05754 8.42139,-0.8323 9.63586,0.78505 0.4872,0.75684 1.32122,0.99499 1.35407,1.92543 -3.02869,3.81343 -12.62952,2.73996 -15.93256,0.66216 -1.35461,-1.09211 -1.17069,-2.67109 -1.16466,-4.19745 0.33194,-3.47381 5.10094,-6.51463 3.8603,-8.22109 -0.18973,-1.58166 -0.80885,-3.95937 1.65875,-4.1371 4.35888,-0.72342 8.90869,-0.44859 12.96332,-0.58398 2.19094,0.0772 2.87651,1.186 2.92982,1.92068"
               id="path3925-9"
               style="font-size:33.08108139px;font-style:normal;font-variant:normal;font-weight:normal;font-stretch:normal;text-align:center;line-height:125%;letter-spacing:0px;word-spacing:0px;text-anchor:middle;fill:#01386b;fill-opacity:1;stroke:none;font-family:Permanent Marker;-inkscape-font-specification:Permanent Marker" />
            <path
               d="m 401.78935,405.40821 c -0.59929,1.08078 -1.21874,2.20138 -2.26592,2.98356 -2.55606,0.15237 -3.64069,-2.18414 -2.87706,-3.89231 1.75728,-3.56453 3.1455,-7.82849 5.19444,-10.70454 0.95665,0.0541 1.38198,1.12706 2.2067,0.23162 1.806,-1.19646 3.18382,-2.97234 5.31892,-3.73149 1.09394,-0.40481 1.9018,0.0794 2.8441,0.75897 3.16641,2.2834 4.39566,7.50461 2.40442,9.8634 -1.76527,1.65713 -4.44438,1.8529 -6.82231,2.07209 -0.72367,0.11749 -2.56339,0.0897 -1.3383,0.89275 0.99902,0.91235 2.06591,1.80976 3.41669,2.26144 1.5231,0.62877 3.01653,1.34636 4.65732,1.69044 0.89611,1.79321 0.44274,3.22302 -1.11824,4.05456 -1.9654,0.24644 -3.71611,-0.82048 -5.36654,-1.64139 -2.09043,-1.18551 -4.37837,-2.29399 -5.75838,-4.23035 -0.16575,-0.20336 -0.33238,-0.40613 -0.49956,-0.60853 m 7.30819,-9.97837 c -1.30665,1.10064 -3.22575,1.7394 -3.86709,3.3868 1.82319,0.15566 3.59251,-0.35676 5.36687,-0.64727 0.11397,-1.07591 -0.47722,-2.18715 -1.49978,-2.73953 z"
               id="path3927-9"
               style="font-size:33.08108139px;font-style:normal;font-variant:normal;font-weight:normal;font-stretch:normal;text-align:center;line-height:125%;letter-spacing:0px;word-spacing:0px;text-anchor:middle;fill:#01386b;fill-opacity:1;stroke:none;font-family:Permanent Marker;-inkscape-font-specification:Permanent Marker" />
            <path
               d="m 437.22049,406.02201 c 1.04993,7.16302 -9.51094,9.47746 -15.58178,6.91407 -3.61025,-0.13462 -6.40749,-3.83689 -5.23495,-6.9673 3.24075,-6.19448 9.96913,-9.29632 16.00778,-11.25507 2.77261,-1.06857 4.52584,3.44821 3.50963,4.48585 -0.35045,2.16033 0.55682,4.84526 1.29954,6.82211 m -5.7968,-4.55732 c -2.62787,0.0192 -11.80173,3.64273 -10.10948,6.30951 10.03602,1.86916 15.13466,-1.82989 10.10948,-6.30951 z"
               id="path3929-8"
               style="font-size:33.08108139px;font-style:normal;font-variant:normal;font-weight:normal;font-stretch:normal;text-align:center;line-height:125%;letter-spacing:0px;word-spacing:0px;text-anchor:middle;fill:#01386b;fill-opacity:1;stroke:none;font-family:Permanent Marker;-inkscape-font-specification:Permanent Marker" />
          </g>
          <g
             transform="translate(-18.985978,19.639772)"
             id="g4774">
            <path
               d="m 231.17769,461.09554 c -1.20033,-1.07912 -1.32486,-3.04483 -1.66697,-4.6875 0.28112,-2.07497 2.44828,-1.16548 3.60422,-1.81149 1.38431,0.31147 2.38574,-0.65242 2.68431,-2.28084 1.62957,-4.26308 2.64691,-8.49753 3.62579,-12.61034 0.14746,-0.77308 0.49513,-2.0571 -0.53012,-1.46653 -1.25943,0.4577 -3.10612,1.33691 -3.94905,-0.47639 -0.34947,-1.44875 -1.17854,-3.5014 -0.32353,-4.82777 3.64075,-1.24784 13.51864,-2.15304 15.58596,0.24296 1.04105,0.77148 2.0339,2.96772 0.33276,3.59858 -1.58038,0.75168 -3.30768,0.87542 -4.98318,0.85897 -1.27385,-0.007 -1.09707,1.84638 -1.42704,2.90561 -0.68455,3.0914 -1.49721,6.13962 -2.11564,9.25248 -0.26228,1.21631 -1.61814,3.12304 -0.88012,4.01385 1.4962,-0.53447 2.28804,0.89436 3.43337,1.80186 1.11832,1.19581 -0.0716,3.17546 -1.2093,3.5474 -2.21876,0.52915 -4.3474,0.42508 -6.49186,0.61975 -1.90092,0.39596 -3.7506,1.22399 -5.68957,1.31928"
               id="path3932-2"
               style="font-size:35.89262009px;font-style:normal;font-variant:normal;font-weight:normal;font-stretch:normal;line-height:125%;letter-spacing:0px;word-spacing:0px;fill:#01386b;fill-opacity:1;stroke:none;font-family:Permanent Marker;-inkscape-font-specification:Permanent Marker" />
            <path
               d="m 266.61537,457.81315 c -0.28822,-2.99321 0.29322,-5.97019 0.99706,-8.81315 -2.87958,0.91302 -5.70793,4.97396 -9.06265,4.35332 -1.43183,-0.43877 -3.23583,-2.01209 -3.77825,-3.67591 -1.355,2.98502 -2.57761,6.33216 -3.4287,9.32843 -0.25224,1.25808 -1.16183,2.78317 -2.33797,2.22853 -1.19577,-1.06876 -1.34912,-3.06474 -1.57972,-4.73174 -0.17704,-1.93325 0.47538,-3.74321 1.11662,-5.44672 1.35451,-4.00045 2.73105,-8.01686 4.63463,-11.67194 0.57295,-1.07722 1.12919,-2.31534 2.07867,-2.92927 1.30864,-0.36269 1.7769,0.49808 2.9224,1.9614 1.1455,1.46332 0.27225,8.13596 3.58669,7.08844 3.26774,-0.79847 6.02183,-8.3985 7.86417,-8.31026 1.37435,0.48055 2.31134,1.99358 3.07196,3.40632 0.58831,6.17528 -0.74649,13.00963 -2.71057,18.77614 -1.87601,2.44188 -3.28488,0.33727 -3.37434,-1.56359 z"
               id="path3934-4"
               style="font-size:35.89262009px;font-style:normal;font-variant:normal;font-weight:normal;font-stretch:normal;line-height:125%;letter-spacing:0px;word-spacing:0px;fill:#01386b;fill-opacity:1;stroke:none;font-family:Permanent Marker;-inkscape-font-specification:Permanent Marker" />
            <path
               d="m 285.33829,436.40804 c 1.47889,0.25186 3.09709,0.68216 4.18289,2.03675 1.90973,1.59914 3.14955,8.24549 -0.0947,11.18027 -2.86652,2.37963 -6.3969,2.7856 -9.68247,3.68729 -0.41576,1.94057 -0.21856,7.69281 -2.19452,7.64889 -2.11388,0.65841 -3.45627,0.0241 -3.22334,-2.71482 1.11559,-6.3388 0.21802,-16.73151 6.07714,-20.45042 1.54744,-0.98284 3.66362,-1.45309 4.93503,-1.38796 z m 1.88713,7.69533 c -1.51497,-1.38438 -3.94911,-2.32427 -5.61654,-1.24336 -0.71095,0.51839 -1.22609,3.42534 -1.35206,4.29178 1.67824,0.31908 5.74116,-1.69914 6.9686,-3.04842 z"
               id="path3936-9"
               style="font-size:35.89262009px;font-style:normal;font-variant:normal;font-weight:normal;font-stretch:normal;line-height:125%;letter-spacing:0px;word-spacing:0px;fill:#01386b;fill-opacity:1;stroke:none;font-family:Permanent Marker;-inkscape-font-specification:Permanent Marker" />
            <path
               d="m 307.95239,438.6346 c 0.15982,1.1877 -0.24807,2.20898 -1.0831,2.85891 -3.45493,1.83891 -5.98118,1.78971 -9.17026,3.11766 0.10314,0.74666 0.0319,1.67159 0.89823,1.37466 1.4554,0.0286 2.89884,-0.27737 4.35428,-0.28086 -0.0599,0.88375 0.97561,1.8536 1.67098,2.11671 0.89847,2.4064 -3.07366,4.07827 -4.67457,3.83058 -0.87034,0.0623 -1.79232,0.0674 -2.71521,-0.0318 -1.95057,0.73075 -1.772,3.28989 -1.51265,3.7149 3.18411,0.16793 5.78627,-0.53951 8.64294,-1.27837 1.76102,0.67755 2.09163,1.35368 2.0831,2.86146 -0.5433,1.6309 -1.76898,2.77826 -3.14927,3.12669 -2.03884,0.73335 -4.03131,0.57371 -5.91238,0.99112 -1.65236,0.19097 -3.44382,0.21903 -4.94426,-0.77805 -1.6141,-1.98414 -2.34387,-5.99119 -1.21091,-7.87476 0.72871,-2.19136 1.73781,-4.14481 2.38102,-6.3269 -1.14262,-1.22271 -0.92258,-3.25061 -1.32099,-4.88282 3.25411,-3.28255 8.89069,-3.43614 12.80103,-4.33594 1.41886,0.13768 1.22478,0.71573 2.86214,1.79687"
               id="path3938-0"
               style="font-size:35.89262009px;font-style:normal;font-variant:normal;font-weight:normal;font-stretch:normal;line-height:125%;letter-spacing:0px;word-spacing:0px;fill:#01386b;fill-opacity:1;stroke:none;font-family:Permanent Marker;-inkscape-font-specification:Permanent Marker" />
            <path
               d="m 311.94681,456.56429 c -0.31839,1.40885 -0.65036,2.87403 -1.41534,4.02344 -0.82542,0.36686 -2.7017,0.62896 -3.24654,-0.51642 -0.49546,-0.91199 0.1747,-2.08141 -0.022,-3.27339 0.0661,-1.39588 0.72615,-2.69389 0.58418,-4.09602 0.32001,-1.26652 0.28419,-2.5282 0.69985,-3.78382 0.40499,-2.05123 0.60139,-4.1806 1.26106,-6.1429 0.91628,-2.22753 3.72449,-4.59149 6.58154,-6.18326 4.37339,1.07826 6.40266,4.95182 6.31384,8.48794 0.46572,4.89043 -3.65706,6.21738 -7.15978,7.85406 -1.04189,2.00292 6.62867,2.61873 8.25741,4.15561 0.56705,1.08857 0.65194,2.79314 0.31012,3.74943 -0.52722,1.13013 -1.64621,1.28654 -2.60302,1.16539 -3.73997,-0.99261 -7.27313,-2.63907 -9.56128,-5.44006 m 4.49766,-13.39844 c -0.93561,1.58122 -2.48698,2.76321 -2.73634,4.84376 1.61888,-0.20487 3.06807,-1.19042 4.56056,-1.91406 -0.10114,-1.29623 -0.83004,-2.49594 -1.82422,-2.9297 z"
               id="path3940-1"
               style="font-size:35.89262009px;font-style:normal;font-variant:normal;font-weight:normal;font-stretch:normal;line-height:125%;letter-spacing:0px;word-spacing:0px;fill:#01386b;fill-opacity:1;stroke:none;font-family:Permanent Marker;-inkscape-font-specification:Permanent Marker" />
            <path
               d="m 330.97537,457.89242 c 0.29696,1.30757 -0.32336,2.90354 -1.47609,3.07982 -0.83367,0.37767 -2.00727,0.22748 -2.18081,-1.08493 -0.56421,-1.67189 -0.92913,-3.4335 -1.24964,-5.19802 -0.17216,-4.03265 1.39608,-7.73166 1.71418,-11.35741 0.15434,-1.59373 0.49405,-4.52589 1.63925,-5.61525 0.56985,-0.82913 2.09189,-1.78114 2.15974,-0.0358 0.9067,1.64116 0.74928,1.46305 1.23511,5.1128 0.23073,1.07164 -0.54053,2.16242 -0.69222,3.25606 -1.00567,3.7838 -1.77082,7.85706 -1.14961,11.84268"
               id="path3942-2"
               style="font-size:35.89262009px;font-style:normal;font-variant:normal;font-weight:normal;font-stretch:normal;line-height:125%;letter-spacing:0px;word-spacing:0px;fill:#01386b;fill-opacity:1;stroke:none;font-family:Permanent Marker;-inkscape-font-specification:Permanent Marker" />
            <path
               d="m 351.262,457.34555 c -0.5758,1.96568 -2.00382,3.68751 -3.7428,3.82811 -0.75284,-0.34514 -2.24672,0.29568 -2.02647,-0.87635 0.16376,-2.12286 3.001,-4.3492 0.91429,-5.28881 -1.16818,-0.1848 -5.29705,-1.31601 -6.15495,-1.23896 -0.50915,0.89234 -1.00485,1.80402 -1.29081,2.99504 -0.51669,1.22271 -0.16987,3.10786 -1.51378,3.52257 -2.35029,1.58235 -4.27516,0.33415 -3.54022,-2.63637 0.45007,-0.80147 0.47527,-1.99471 0.93219,-2.86979 0.96925,-2.74081 2.07257,-5.40354 3.11845,-8.09945 0.52717,-3.49817 6.0149,-9.67487 7.30508,-9.6989 1.88984,0.28545 2.12594,0.47097 2.94827,1.37859 0.53599,1.97478 0.46218,4.10418 0.92795,6.10264 0.24053,1.46808 0.43042,2.96116 0.86483,4.36612 0.71287,-0.0298 1.59591,-0.83049 2.32449,0.28321 0.6026,0.63085 1.76015,1.18933 0.68237,2.37784 -0.39453,1.23676 -2.20707,1.42031 -1.89858,2.9575 0.23344,0.89588 0.34304,1.96573 0.14987,2.89696 m -5.69131,-7.42112 c -0.30746,-1.60732 -0.61723,-3.21456 -0.97672,-4.8054 -1.20008,1.10623 -2.79568,2.78677 -2.94141,5.51802 1.01643,0.25568 2.98697,-0.0523 3.91813,-0.71262 z"
               id="path3944-0"
               style="font-size:35.89262009px;font-style:normal;font-variant:normal;font-weight:normal;font-stretch:normal;line-height:125%;letter-spacing:0px;word-spacing:0px;fill:#01386b;fill-opacity:1;stroke:none;font-family:Permanent Marker;-inkscape-font-specification:Permanent Marker" />
          </g>
        </g>
      </g>
      <path
         d="m 162.87171,54.007582 c -1.3503,-0.01358 -2.4321,0.937175 -3.6549,1.349475 1.7159,6.660333 1.8405,13.574373 2.3996,20.392793 0.5676,8.66517 0.6556,17.35373 0.6552,26.03469 -0.059,4.76662 -0.3511,9.52884 -0.7494,14.27639 -0.025,1.25446 1.031,2.13042 1.9626,2.76452 1.4623,0.81186 3.4622,0.66932 4.7848,-0.29611 0.4982,-0.94145 0.3051,-2.08644 0.3536,-3.1205 -0.2658,-14.22028 -0.7242,-28.43961 -1.5025,-42.64186 -0.3629,-5.5985 -0.8369,-11.193414 -1.4146,-16.771459 -0.1052,-0.82166 -0.5845,-1.496721 -1.3676,-1.781253 -0.4539,-0.245065 -0.9646,-0.275626 -1.4668,-0.206686 z m 9.3338,8.51856 c -1.1692,0.12488 -2.2659,1.111658 -2.2291,2.338718 -0.09,1.29102 0.059,2.75788 1.053,3.67373 0.8615,0.98051 2.6515,1.1984 3.8673,0.51389 1.2396,-0.58258 1.8562,-2.10515 1.5148,-3.43872 -0.065,-1.41419 -0.9517,-2.933985 -2.4675,-3.073188 -0.5718,-0.09206 -1.162,-0.0242 -1.7385,-0.01439 z m -27.8891,0.983988 c -4.275,0.31656 -8.204,2.22098 -11.9089,4.24414 -2.0725,1.12425 -3.7114,2.86958 -5.4648,4.43576 -2.255,2.18099 -4.5517,4.35844 -6.2591,7.00126 -1.7291,2.96254 -2.8881,6.38518 -2.7318,9.8518 0.1234,1.75591 0.4444,3.65146 1.5399,5.05514 1.6248,1.63085 3.1592,3.50327 5.4248,4.22324 3.7231,1.47714 7.6845,2.22653 11.6405,2.75676 3.1877,0.45709 6.4057,0.68538 9.5931,1.12713 1.8584,0.34122 3.7963,0.59869 5.5041,1.42353 0.313,0.41337 -0.3733,0.60358 -0.5722,0.87635 -1.2426,1.01007 -2.7536,1.82787 -4.1854,2.67037 -4.0667,2.2181 -8.633,3.25164 -13.0226,4.64092 -2.3636,0.79901 -4.8232,1.40163 -7.0445,2.55193 -1.1666,0.98249 -1.3895,3.02926 -0.3655,4.21711 1.0528,1.01489 2.6945,0.71634 4.0203,0.47794 5.5357,-0.91627 10.8072,-2.94085 15.9891,-5.02854 2.678,-1.34946 5.5618,-2.33978 8.0203,-4.08041 0.9523,-0.82246 1.8249,-1.77709 2.8114,-2.5865 0.9544,-0.86546 1.5159,-2.20366 1.1924,-3.50585 -0.1532,-1.13745 -0.446,-2.32952 -1.0237,-3.29775 -0.8456,-0.95503 -1.7699,-1.82784 -2.986,-2.26781 -3.3609,-1.41962 -7.0604,-1.50079 -10.6317,-1.93772 -4.8667,-0.45499 -9.786,-0.84081 -14.4984,-2.20515 -1.2906,-0.39628 -2.4713,-1.28601 -3.5122,-1.99542 -1.6222,-1.32694 -2.0361,-3.69322 -1.4179,-5.62984 0.984,-3.33415 3.3185,-6.00711 5.2871,-8.80054 0.7572,-1.03807 1.4384,-1.98335 2.4665,-2.77999 1.122,-0.9126 2.5264,-1.72722 3.7477,-2.63183 1.5603,-0.97561 3.0963,-2.12884 4.9295,-2.50848 0.643,-0.17967 1.0155,0.42452 1.4619,0.67474 0.7519,0.80285 1.8001,1.30389 2.9239,1.23702 1.3736,0.003 2.8086,-0.44049 3.8757,-1.26978 1.2907,-1.06221 1.7099,-2.88189 1.5045,-4.49748 -0.1718,-1.07125 -0.8449,-2.10192 -1.9503,-2.32959 -1.107,-0.21655 -2.2631,-0.12316 -3.3906,-0.16868 -0.3227,0.003 -0.6448,0.0399 -0.9671,0.0562 z m 39.5002,9.36199 c -1.2181,-0.0136 -2.7543,0.50836 -2.8957,1.88364 -0.1751,3.51898 0.8173,6.96815 0.8128,10.48 0.7904,10.53133 0.938,21.09682 1.5178,31.63988 0.094,1.08173 0.021,2.18654 0.1716,3.25621 0.1845,0.58068 0.9044,0.73291 1.4115,0.46241 1.4782,-0.38261 2.9854,-0.64987 4.4643,-1.0247 0.4474,-1.02204 0.4977,-2.16536 0.7633,-3.24254 1.3147,-7.24221 2.8605,-14.45 4.78,-21.55577 0.2057,-0.57576 0.4254,-1.15134 0.7261,-1.68513 1.1796,2.9645 1.603,6.14403 2.3274,9.23359 0.6188,3.33478 1.3654,6.66045 1.5805,10.05266 0.7467,-0.51253 1.6599,-0.62372 2.5527,-0.56229 1.0652,0.0179 2.3928,0.073 3.0139,-0.95587 0.7237,-1.0926 0.7018,-2.54333 1.1774,-3.76945 1.321,-4.22532 2.2859,-8.5692 3.9054,-12.69698 0.5058,-1.26538 1.0411,-2.52054 1.8332,-3.63512 1.0119,3.38506 1.1599,6.93711 1.4147,10.4387 0.2203,3.10114 0.328,6.21039 0.5406,9.31066 0.2382,2.23435 0.5887,4.72588 2.3047,6.32714 0.6911,0.8296 1.744,1.3 2.836,1.22224 1.5823,-0.0113 3.2366,-0.94365 3.6436,-2.53026 0.2852,-1.19128 -0.3182,-2.31771 -1.0293,-3.22649 -1.2182,-2.09766 -1.57,-4.57083 -1.8383,-6.9508 -0.414,-5.69536 0.1973,-11.46703 -0.9204,-17.10482 -0.3929,-2.22166 -1.0164,-4.43756 -2.0878,-6.42664 -0.5407,-0.65239 -1.2214,-1.22811 -2.0807,-1.43645 -1.2241,-0.4016 -2.5533,-0.38033 -3.8233,-0.2504 -0.6267,0.1107 -1.1207,0.43914 -1.4693,0.96327 -2.1328,2.01747 -2.904,4.97615 -4.025,7.61059 -0.9201,2.34278 -1.7946,4.70176 -2.6026,7.08567 -0.7658,-3.71155 -0.6108,-7.67857 -2.3428,-11.14338 -0.4833,-0.88219 -1.2824,-1.63026 -2.1273,-2.18268 -1.5879,-0.39838 -3.2608,-0.23074 -4.8774,-0.21199 -1.0505,0.15932 -1.9268,0.9187 -2.4322,1.73014 -1.0915,1.58772 -1.3444,3.64014 -1.8585,5.49256 -0.3501,1.51738 -0.6828,3.03837 -0.9529,4.57228 -0.3286,-6.74418 -0.143,-13.53826 -1.2209,-20.22486 0.054,-0.51102 -0.2271,-1.17044 -0.8315,-0.91691 -0.7819,-0.095 -1.5762,-0.0602 -2.3616,-0.0281 z m -9.9804,2.50215 c -0.7412,0.002 -1.6525,-0.0441 -2.0524,0.70285 -0.4131,0.51795 -0.3375,1.26046 -0.2998,1.89391 -0.6301,5.75982 -0.6359,11.56651 -0.5067,17.35239 0.1864,7.56709 0.5573,15.1296 0.6311,22.69962 0.029,0.87127 -0.1283,1.92976 0.6608,2.50979 1.0249,0.98483 2.7286,1.0612 4.0066,0.53838 1.0221,-0.50782 1.5701,-1.66262 1.4907,-2.80005 0.015,-2.46918 -0.1618,-4.93515 -0.1413,-7.40547 -0.1509,-10.3363 0.092,-20.67386 0.069,-31.00971 -0.074,-1.0879 0.039,-2.24208 -0.3437,-3.27281 -0.3878,-0.46305 -0.8237,-0.8963 -1.462,-1.01211 -0.6451,-0.23584 -1.3735,-0.23245 -2.0523,-0.19679 z m 52.995,3.54237 c -1.4378,0.002 -2.3448,1.48524 -2.2783,2.81702 -0.1342,7.20489 0.4141,14.39689 0.5879,21.59632 0.2937,7.6147 0.5232,15.23717 0.3166,22.85744 -0.1597,4.25027 -0.4259,8.49694 -0.7629,12.73586 -0.1038,0.99303 0.4036,2.06533 1.4057,2.29411 0.8696,0.1743 1.7616,-0.0497 2.6327,-0.0561 0.7877,-0.0468 1.8802,-0.27338 1.867,-1.24592 0.2609,-5.47808 0.4084,-10.97332 0.7367,-16.45306 0.1131,-2.18067 0.2626,-4.35929 0.4426,-6.53544 3.7324,-2.26046 7.3827,-4.74777 10.7958,-7.42211 0.4139,-0.73836 1.355,-0.91322 1.9118,-1.57438 2.6396,-2.55741 5.6478,-4.808 8.177,-7.51625 1.9009,-1.98706 3.788,-4.03001 5.4198,-6.22458 1.4117,-2.38764 2.4901,-5.2909 1.7525,-8.0787 -0.254,-1.04532 -0.8386,-1.96215 -1.7007,-2.59825 -1.4721,-1.72255 -3.8287,-2.23455 -5.9718,-2.63235 -3.6207,-0.57966 -7.3655,0.0198 -10.7084,1.49454 -3.0314,1.23807 -5.909,2.81674 -8.5934,4.69234 -0.7004,0.45215 -1.3768,0.9403 -2.0666,1.40832 0.2596,-2.6569 0.8798,-5.47461 -0.1882,-8.03257 -0.7803,-1.21673 -2.3647,-1.69589 -3.7758,-1.52621 z m 23.2222,7.19719 c 1.1182,-9e-4 2.3409,0.0906 3.2612,0.7872 0.1661,1.35543 -0.61,2.59494 -1.0898,3.80482 -0.9659,1.65756 -2.1497,3.30015 -3.1835,4.82619 -0.9119,1.05324 -1.9394,1.97869 -3.0926,2.67084 -2.281,1.60282 -4.4532,3.36245 -6.8708,4.76393 -2.2839,1.49186 -4.6742,2.88876 -6.8592,4.48989 -0.3236,0.44183 -0.6757,0.43766 -0.5092,-0.17758 -0.3468,-2.65493 -0.8975,-5.3364 -0.6143,-8.02067 0.1326,-1.50073 1.099,-2.71664 1.8874,-3.9413 0.7755,-1.09508 1.4486,-2.24128 2.654,-2.96297 2.3793,-1.60682 4.6681,-3.39519 7.3546,-4.46432 2.2289,-0.95662 4.6312,-1.65708 7.0622,-1.77603 z"
         id="path4619"
         style="font-size:40px;font-style:normal;font-variant:normal;font-weight:normal;font-stretch:normal;line-height:125%;letter-spacing:0px;word-spacing:0px;fill:#c9e1ee;fill-opacity:0.95294118;stroke:none;font-family:Shadows Into Light;-inkscape-font-specification:Shadows Into Light" />
    </g>
  </g>
</svg>
